# xmcd CD database file
#
# Track frame offsets:
#	150
#	17030
#	33223
#	54643
#	73378
#	94878
#	112931
#	129166
#	145645
#	168323
#	183049
#
# Disc length: 2811 seconds
#
# Revision: 4
# Processed by: cddbd v1.4PL0 Copyright (c) Steve Scherf et al.
# Submitted via: CDex 1.40Release
#
DISCID=8a0af90b
DTITLE=Big House - Big House
DYEAR=1997
DGENRE=Country
TTITLE0=You Ain't Lonely Yet
TTITLE1=Cold Outside
TTITLE2=Amarillo
TTITLE3=Love Ain't Easy
TTITLE4=Walkin' On Me
TTITLE5=Sunday In Memphis
TTITLE6=Blue Train
TTITLE7=Soul Country
TTITLE8=Cryin' Town
TTITLE9=Whose Baby Will You Be Tonight
TTITLE10=Road Man
EXTD=YEAR: 1997 ID3G: 2
EXTT0=
EXTT1=
EXTT2=
EXTT3=
EXTT4=
EXTT5=
EXTT6=
EXTT7=
EXTT8=
EXTT9=
EXTT10=
PLAYORDER=
